<svg width="46" height="45" viewBox="0 0 46 45" fill="none" xmlns="http://www.w3.org/2000/svg">
<path fill-rule="evenodd" clip-rule="evenodd" d="M16 33.75C17.0355 33.75 17.875 34.5895 17.875 35.625V39.375C17.875 40.4105 17.0355 41.25 16 41.25C14.9645 41.25 14.125 40.4105 14.125 39.375V35.625C14.125 34.5895 14.9645 33.75 16 33.75Z" fill="#D9D9D9"/>
<path fill-rule="evenodd" clip-rule="evenodd" d="M16 22.5C17.0355 22.5 17.875 23.3395 17.875 24.375V28.125C17.875 29.1605 17.0355 30 16 30C14.9645 30 14.125 29.1605 14.125 28.125V24.375C14.125 23.3395 14.9645 22.5 16 22.5Z" fill="#D9D9D9"/>
<path fill-rule="evenodd" clip-rule="evenodd" d="M31 33.75C32.0355 33.75 32.875 34.5895 32.875 35.625V39.375C32.875 40.4105 32.0355 41.25 31 41.25C29.9645 41.25 29.125 40.4105 29.125 39.375V35.625C29.125 34.5895 29.9645 33.75 31 33.75Z" fill="#D9D9D9"/>
<path fill-rule="evenodd" clip-rule="evenodd" d="M31 22.5C32.0355 22.5 32.875 23.3395 32.875 24.375V28.125C32.875 29.1605 32.0355 30 31 30C29.9645 30 29.125 29.1605 29.125 28.125V24.375C29.125 23.3395 29.9645 22.5 31 22.5Z" fill="#D9D9D9"/>
<path fill-rule="evenodd" clip-rule="evenodd" d="M23.5 37.5C24.5355 37.5 25.375 38.3395 25.375 39.375V43.125C25.375 44.1605 24.5355 45 23.5 45C22.4645 45 21.625 44.1605 21.625 43.125V39.375C21.625 38.3395 22.4645 37.5 23.5 37.5Z" fill="#D9D9D9"/>
<path fill-rule="evenodd" clip-rule="evenodd" d="M23.5 26.25C24.5355 26.25 25.375 27.0895 25.375 28.125V31.875C25.375 32.9105 24.5355 33.75 23.5 33.75C22.4645 33.75 21.625 32.9105 21.625 31.875V28.125C21.625 27.0895 22.4645 26.25 23.5 26.25Z" fill="#D9D9D9"/>
<path fill-rule="evenodd" clip-rule="evenodd" d="M16.1545 0.0873036C18.8149 -0.183597 21.5016 0.181641 23.9931 1.15291C26.4847 2.12419 28.7097 3.67368 30.4848 5.67368C31.9338 7.30619 33.0491 9.20071 33.7737 11.2499H34.7523C37.3345 11.253 39.837 12.1442 41.8399 13.7741C43.8427 15.4039 45.2239 17.6732 45.7516 20.2009C46.2793 22.7286 45.9214 25.3609 44.738 27.6559C43.5545 29.951 41.6176 31.769 39.2523 32.805C38.3037 33.2204 37.198 32.7882 36.7826 31.8397C36.3671 30.8911 36.7993 29.7854 37.7479 29.37C39.3247 28.6793 40.616 27.4673 41.405 25.9373C42.1939 24.4072 42.4326 22.6524 42.0808 20.9672C41.729 19.2821 40.8082 17.7693 39.4729 16.6827C38.1379 15.5963 36.4698 15.0021 34.7486 15C34.7483 15 34.7488 15 34.7486 15H32.3876C31.5326 15 30.7859 14.4216 30.5721 13.5938C30.0521 11.5799 29.0609 9.71853 27.6802 8.16297C26.2995 6.60742 24.569 5.40225 22.6311 4.64682C20.6933 3.89139 18.6036 3.60731 16.5344 3.81801C14.4652 4.02871 12.4757 4.72815 10.7299 5.85869C8.98408 6.98922 7.53194 8.51847 6.49317 10.3204C5.45439 12.1223 4.85872 14.1453 4.75526 16.2226C4.6518 18.2999 5.04352 20.3721 5.89811 22.2683C6.75271 24.1646 8.04571 25.8305 9.67056 27.1289C10.4795 27.7754 10.6113 28.9552 9.96484 29.7642C9.31839 30.5732 8.13854 30.7049 7.32957 30.0585C5.24048 28.3891 3.57805 26.2471 2.47928 23.8091C1.38052 21.3712 0.876887 18.7069 1.00991 16.0361C1.14292 13.3652 1.90878 10.7643 3.24435 8.4475C4.57992 6.13075 6.44696 4.16457 8.69158 2.71103C10.9362 1.25749 13.4941 0.358204 16.1545 0.0873036Z" fill="#D9D9D9"/>
</svg>
