<svg width="64" height="63" viewBox="0 0 64 63" fill="none" xmlns="http://www.w3.org/2000/svg">
<path fill-rule="evenodd" clip-rule="evenodd" d="M22.4864 2.52411e-07C23.1498 -0.000302374 23.7862 0.27153 24.2553 0.755633L38.4047 15.3572C41.5525 18.6038 43.6973 22.7414 44.5666 27.2455C45.4359 31.75 44.9912 36.4194 43.2887 40.663C41.5862 44.9066 38.7023 48.5338 35.0019 51.0858C31.3014 53.6378 26.9507 55 22.5 55C18.0493 55 13.6986 53.6378 9.99814 51.0858C6.29772 48.5338 3.41385 44.9066 1.71131 40.663C0.00877171 36.4194 -0.435942 31.75 0.433421 27.2455C1.30265 22.7418 3.44649 18.6052 6.59382 15.3588L20.7182 0.757247C21.1869 0.272716 21.823 0.000302879 22.4864 2.52411e-07ZM22.4891 6.23003L10.1297 19.007C7.68113 21.5321 6.01328 24.7499 5.33711 28.2534C4.66093 31.7569 5.00682 35.3886 6.33102 38.6892C7.65521 41.9898 9.89823 44.811 12.7763 46.7959C15.6544 48.7808 19.0383 49.8402 22.5 49.8402C25.9617 49.8402 29.3456 48.7808 32.2237 46.7959C35.1018 44.811 37.3448 41.9898 38.669 38.6892C39.9932 35.3886 40.3391 31.7569 39.6629 28.2534C38.9867 24.7499 37.3189 21.5321 34.8703 19.007L22.4891 6.23003Z" fill="black"/>
<path d="M5.33711 28.2534C6.01328 24.7499 7.68113 21.5321 10.1297 19.007L22.4891 6.23003L34.8703 19.007C37.3189 21.5321 38.9867 24.7499 39.6629 28.2534C40.3391 31.7569 39.9932 35.3886 38.669 38.6892C37.3448 41.9898 35.1018 44.811 32.2237 46.7959C29.3456 48.7808 25.9617 49.8402 22.5 49.8402C19.0383 49.8402 15.6544 48.7808 12.7763 46.7959C9.89823 44.811 7.65521 41.9898 6.33102 38.6892C5.00682 35.3886 4.66093 31.7569 5.33711 28.2534Z" fill="url(#paint0_linear_22_1181)"/>
<path fill-rule="evenodd" clip-rule="evenodd" d="M41.4864 8C42.1498 7.9997 42.7862 8.27153 43.2553 8.75563L57.4047 23.3572C60.5525 26.6038 62.6973 30.7414 63.5666 35.2455C64.4359 39.75 63.9912 44.4194 62.2887 48.663C60.5862 52.9066 57.7023 56.5338 54.0019 59.0858C50.3014 61.6378 45.9507 63 41.5 63C37.0493 63 32.6986 61.6378 28.9981 59.0858C25.2977 56.5338 22.4138 52.9066 20.7113 48.663C19.0088 44.4194 18.5641 39.75 19.4334 35.2455C20.3026 30.7418 22.4465 26.6052 25.5938 23.3588L39.7182 8.75725C40.1869 8.27272 40.823 8.0003 41.4864 8ZM41.4891 14.23L29.1297 27.007C26.6811 29.5321 25.0133 32.7499 24.3371 36.2534C23.6609 39.7569 24.0068 43.3886 25.331 46.6892C26.6552 49.9898 28.8982 52.811 31.7763 54.7959C34.6544 56.7808 38.0383 57.8402 41.5 57.8402C44.9617 57.8402 48.3456 56.7808 51.2237 54.7959C54.1018 52.811 56.3448 49.9898 57.669 46.6892C58.9932 43.3886 59.3391 39.7569 58.6629 36.2534C57.9867 32.7499 56.3189 29.5321 53.8703 27.007L41.4891 14.23Z" fill="black"/>
<path d="M24.3371 36.2534C25.0133 32.7499 26.6811 29.5321 29.1297 27.007L41.4891 14.23L53.8703 27.007C56.3189 29.5321 57.9867 32.7499 58.6629 36.2534C59.3391 39.7569 58.9932 43.3886 57.669 46.6892C56.3448 49.9898 54.1018 52.811 51.2237 54.7959C48.3456 56.7808 44.9617 57.8402 41.5 57.8402C38.0383 57.8402 34.6544 56.7808 31.7763 54.7959C28.8982 52.811 26.6552 49.9898 25.331 46.6892C24.0068 43.3886 23.6609 39.7569 24.3371 36.2534Z" fill="url(#paint1_linear_22_1181)"/>
<defs>
<linearGradient id="paint0_linear_22_1181" x1="22.5" y1="0" x2="22.5" y2="55" gradientUnits="userSpaceOnUse">
<stop stop-color="#676ECE"/>
<stop offset="1" stop-color="#222666"/>
</linearGradient>
<linearGradient id="paint1_linear_22_1181" x1="41.5" y1="8" x2="41.5" y2="63" gradientUnits="userSpaceOnUse">
<stop stop-color="#676ECE"/>
<stop offset="1" stop-color="#222666"/>
</linearGradient>
</defs>
</svg>
