<svg width="125" height="125" viewBox="0 0 125 125" fill="none" xmlns="http://www.w3.org/2000/svg">
<path fill-rule="evenodd" clip-rule="evenodd" d="M62.5 41.6667C50.9941 41.6667 41.6667 50.9941 41.6667 62.5C41.6667 74.0059 50.9941 83.3333 62.5 83.3333C74.0059 83.3333 83.3333 74.0059 83.3333 62.5C83.3333 50.9941 74.0059 41.6667 62.5 41.6667ZM31.25 62.5C31.25 45.2411 45.2411 31.25 62.5 31.25C79.7589 31.25 93.75 45.2411 93.75 62.5C93.75 79.7589 79.7589 93.75 62.5 93.75C45.2411 93.75 31.25 79.7589 31.25 62.5Z" fill="#EDEDED"/>
<path fill-rule="evenodd" clip-rule="evenodd" d="M62.5 0C65.3764 0 67.7083 2.33185 67.7083 5.20833V15.625C67.7083 18.5015 65.3764 20.8333 62.5 20.8333C59.6235 20.8333 57.2916 18.5015 57.2916 15.625V5.20833C57.2916 2.33185 59.6235 0 62.5 0Z" fill="#EDEDED"/>
<path fill-rule="evenodd" clip-rule="evenodd" d="M62.5 104.167C65.3764 104.167 67.7083 106.499 67.7083 109.375V119.792C67.7083 122.668 65.3764 125 62.5 125C59.6235 125 57.2916 122.668 57.2916 119.792V109.375C57.2916 106.499 59.6235 104.167 62.5 104.167Z" fill="#EDEDED"/>
<path fill-rule="evenodd" clip-rule="evenodd" d="M18.2964 18.2962C20.3303 16.2623 23.6281 16.2623 25.6621 18.2962L33.0579 25.6921C35.0919 27.7261 35.0919 31.0238 33.0579 33.0578C31.0239 35.0917 27.7262 35.0917 25.6922 33.0578L18.2964 25.6619C16.2624 23.628 16.2624 20.3302 18.2964 18.2962Z" fill="#EDEDED"/>
<path fill-rule="evenodd" clip-rule="evenodd" d="M91.9422 91.9422C93.9762 89.9083 97.2739 89.9083 99.3079 91.9422L106.704 99.3381C108.738 101.372 108.738 104.67 106.704 106.704C104.67 108.738 101.372 108.738 99.3381 106.704L91.9422 99.3079C89.9083 97.2739 89.9083 93.9762 91.9422 91.9422Z" fill="#EDEDED"/>
<path fill-rule="evenodd" clip-rule="evenodd" d="M0 62.5001C0 59.6236 2.33185 57.2917 5.20833 57.2917H15.625C18.5015 57.2917 20.8333 59.6236 20.8333 62.5001C20.8333 65.3766 18.5015 67.7084 15.625 67.7084H5.20833C2.33185 67.7084 0 65.3766 0 62.5001Z" fill="#EDEDED"/>
<path fill-rule="evenodd" clip-rule="evenodd" d="M104.167 62.5001C104.167 59.6236 106.499 57.2917 109.375 57.2917H119.792C122.668 57.2917 125 59.6236 125 62.5001C125 65.3766 122.668 67.7084 119.792 67.7084H109.375C106.499 67.7084 104.167 65.3766 104.167 62.5001Z" fill="#EDEDED"/>
<path fill-rule="evenodd" clip-rule="evenodd" d="M33.0579 91.9422C35.0919 93.9762 35.0919 97.2739 33.0579 99.3079L25.6621 106.704C23.6281 108.738 20.3303 108.738 18.2964 106.704C16.2624 104.67 16.2624 101.372 18.2964 99.3381L25.6922 91.9422C27.7262 89.9083 31.0239 89.9083 33.0579 91.9422Z" fill="#EDEDED"/>
<path fill-rule="evenodd" clip-rule="evenodd" d="M106.704 18.2962C108.738 20.3302 108.738 23.628 106.704 25.6619L99.3079 33.0578C97.2739 35.0917 93.9762 35.0917 91.9422 33.0578C89.9083 31.0238 89.9083 27.7261 91.9422 25.6921L99.3381 18.2962C101.372 16.2623 104.67 16.2623 106.704 18.2962Z" fill="#EDEDED"/>
<rect x="0.5" y="0.5" width="124" height="124" stroke="black"/>
</svg>
