<svg width="72" height="72" viewBox="0 0 72 72" fill="none" xmlns="http://www.w3.org/2000/svg">
<path fill-rule="evenodd" clip-rule="evenodd" d="M33.607 15.057C33.1221 14.9611 32.6211 14.9865 32.1484 15.131C31.6757 15.2754 31.2461 15.5344 30.8976 15.885C29.7295 17.06 27.83 17.0656 26.655 15.8975C25.4799 14.7294 25.4743 12.83 26.6424 11.6549C27.6878 10.6033 28.9768 9.82632 30.3948 9.39296C31.8129 8.95959 33.316 8.88331 34.7707 9.17088C36.2253 9.45845 37.5863 10.101 38.7328 11.0413C39.8793 11.9817 40.7756 13.1907 41.3422 14.561C41.9088 15.9313 42.1281 17.4203 41.9805 18.8957C41.8329 20.3711 41.3231 21.7872 40.4964 23.0181C39.6696 24.249 38.5515 25.2566 37.2415 25.9513C35.9336 26.6448 34.4749 27.005 32.9946 26.9999C32.9922 26.9999 32.9898 26.9999 32.9874 26.9999L33 23.9999V26.9999H32.9946H6C4.34315 26.9999 3 25.6568 3 23.9999C3 22.3431 4.34315 20.9999 6 20.9999H33.0126C33.5069 21.002 33.994 20.882 34.4306 20.6504C34.8673 20.4189 35.24 20.083 35.5156 19.6727C35.7912 19.2624 35.9611 18.7904 36.0103 18.2986C36.0595 17.8068 35.9864 17.3104 35.7975 16.8537C35.6087 16.3969 35.3099 15.9939 34.9277 15.6804C34.5456 15.367 34.0919 15.1528 33.607 15.057ZM59.3667 24.0869C58.6415 23.9422 57.8919 23.9785 57.1841 24.1926C56.4763 24.4066 55.8322 24.7917 55.3086 25.314C54.1356 26.484 52.2361 26.4816 51.066 25.3086C49.8959 24.1355 49.8983 22.236 51.0714 21.0659C52.2929 19.8475 53.7959 18.9488 55.4475 18.4494C57.099 17.95 58.8482 17.8653 60.5402 18.2027C62.2323 18.5402 63.8151 19.2894 65.1487 20.3842C66.4823 21.4789 67.5256 22.8854 68.1863 24.4792C68.847 26.0731 69.1047 27.8052 68.9367 29.5224C68.7687 31.2396 68.1801 32.8889 67.223 34.3245C66.2659 35.7601 64.9698 36.9377 63.4493 37.7532C61.9288 38.5686 60.2307 38.9969 58.5054 38.9999L58.5 38.9999H6C4.34315 38.9999 3 37.6568 3 35.9999C3 34.3431 4.34315 32.9999 6 32.9999H58.4968C59.2355 32.9983 59.9624 32.8148 60.6134 32.4656C61.2651 32.1161 61.8206 31.6114 62.2308 30.9962C62.6409 30.3809 62.8932 29.6741 62.9652 28.9382C63.0372 28.2022 62.9267 27.4599 62.6436 26.7768C62.3604 26.0937 61.9133 25.4909 61.3418 25.0218C60.7702 24.5526 60.0919 24.2315 59.3667 24.0869ZM41.9941 44.9999C43.4746 44.9948 44.9335 45.355 46.2415 46.0486C47.5515 46.7433 48.6696 47.7509 49.4964 48.9818C50.3231 50.2127 50.8329 51.6288 50.9805 53.1042C51.1281 54.5796 50.9088 56.0686 50.3422 57.4389C49.7756 58.8092 48.8793 60.0182 47.7328 60.9586C46.5863 61.8989 45.2253 62.5414 43.7707 62.829C42.316 63.1166 40.8129 63.0403 39.3948 62.6069C37.9768 62.1736 36.6878 61.3966 35.6424 60.345C34.4743 59.1699 34.4799 57.2705 35.655 56.1024C36.83 54.9343 38.7295 54.9399 39.8976 56.1149C40.2461 56.4655 40.6757 56.7245 41.1484 56.8689C41.6211 57.0134 42.1221 57.0388 42.607 56.9429C43.0919 56.8471 43.5456 56.6329 43.9277 56.3195C44.3099 56.006 44.6087 55.603 44.7975 55.1462C44.9864 54.6895 45.0595 54.1931 45.0103 53.7013C44.9611 53.2095 44.7912 52.7375 44.5156 52.3272C44.24 51.9169 43.8673 51.581 43.4306 51.3495C42.994 51.1179 42.5069 50.9978 42.0126 50.9999L42 50.9999H6C4.34315 50.9999 3 49.6568 3 47.9999C3 46.3431 4.34315 44.9999 6 44.9999H41.9941Z" fill="black"/>
</svg>
