<svg width="65" height="65" viewBox="0 0 65 65" fill="none" xmlns="http://www.w3.org/2000/svg">
<path fill-rule="evenodd" clip-rule="evenodd" d="M5.79784 32.5C6.09384 33.0115 6.48625 33.6634 6.97237 34.4161C8.22097 36.3494 10.07 38.9204 12.4706 41.481C17.3212 46.6549 24.1028 51.4583 32.5 51.4583C40.8972 51.4583 47.6788 46.6549 52.5294 41.481C54.93 38.9204 56.779 36.3494 58.0276 34.4161C58.5138 33.6634 58.9062 33.0115 59.2022 32.5C58.9062 31.9885 58.5138 31.3366 58.0276 30.5839C56.779 28.6506 54.93 26.0796 52.5294 23.519C47.6788 18.3451 40.8972 13.5417 32.5 13.5417C24.1028 13.5417 17.3212 18.3451 12.4706 23.519C10.07 26.0796 8.22097 28.6506 6.97237 30.5839C6.48625 31.3366 6.09384 31.9885 5.79784 32.5ZM62.2917 32.5C64.7141 31.2888 64.7136 31.2879 64.7131 31.2869L64.7088 31.2782L64.6994 31.2597L64.6687 31.1995C64.6428 31.1493 64.6063 31.079 64.5592 30.9899C64.465 30.8119 64.3283 30.5587 64.1497 30.2412C63.7927 29.6065 63.2671 28.7124 62.5778 27.6452C61.2027 25.5161 59.1586 22.6704 56.481 19.8143C51.1754 14.1549 43.0612 8.125 32.5 8.125C21.9388 8.125 13.8246 14.1549 8.51896 19.8143C5.84143 22.6704 3.79726 25.5161 2.42216 27.6452C1.73293 28.7124 1.20735 29.6065 0.850339 30.2412C0.67173 30.5587 0.535004 30.8119 0.440791 30.9899C0.393674 31.079 0.357162 31.1493 0.331332 31.1995L0.300598 31.2597L0.291251 31.2782L0.288086 31.2845C0.287588 31.2855 0.285926 31.2888 2.70833 32.5L0.285926 31.2888C-0.0953088 32.0513 -0.0953088 32.9487 0.285926 33.7112L2.70833 32.5C0.285926 33.7112 0.285429 33.7102 0.285926 33.7112L0.291251 33.7218L0.300598 33.7403L0.331332 33.8005C0.357162 33.8507 0.393674 33.921 0.440791 34.0101C0.535004 34.1881 0.67173 34.4413 0.850339 34.7588C1.20735 35.3935 1.73293 36.2876 2.42216 37.3548C3.79726 39.4839 5.84143 42.3296 8.51896 45.1857C13.8246 50.8451 21.9388 56.875 32.5 56.875C43.0612 56.875 51.1754 50.8451 56.481 45.1857C59.1586 42.3296 61.2027 39.4839 62.5778 37.3548C63.2671 36.2876 63.7927 35.3935 64.1497 34.7588C64.3283 34.4413 64.465 34.1881 64.5592 34.0101C64.6063 33.921 64.6428 33.8507 64.6687 33.8005L64.6994 33.7403L64.7088 33.7218L64.7119 33.7155C64.7124 33.7145 64.7141 33.7112 62.2917 32.5ZM62.2917 32.5L64.7141 33.7112C65.0953 32.9487 65.0944 32.0494 64.7131 31.2869L62.2917 32.5Z" fill="black"/>
<path fill-rule="evenodd" clip-rule="evenodd" d="M32.5001 27.0834C29.5085 27.0834 27.0834 29.5085 27.0834 32.5001C27.0834 35.4916 29.5085 37.9167 32.5001 37.9167C35.4916 37.9167 37.9167 35.4916 37.9167 32.5001C37.9167 29.5085 35.4916 27.0834 32.5001 27.0834ZM21.6667 32.5001C21.6667 26.517 26.517 21.6667 32.5001 21.6667C38.4832 21.6667 43.3334 26.517 43.3334 32.5001C43.3334 38.4832 38.4832 43.3334 32.5001 43.3334C26.517 43.3334 21.6667 38.4832 21.6667 32.5001Z" fill="black"/>
</svg>
